<svg width="100" height="30" viewBox="0 0 100 30" fill="none" xmlns="http://www.w3.org/2000/svg">
<rect width="100" height="30" rx="15" fill="#39CA6E"/>
<path d="M29.8141 21.128C28.6088 21.128 27.6541 20.856 26.9501 20.312C26.2568 19.768 25.9101 19.0427 25.9101 18.136V17.64C25.9101 17.5333 25.9635 17.48 26.0701 17.48H26.8541C26.9608 17.48 27.0141 17.5333 27.0141 17.64V18.072C27.0141 18.6907 27.2701 19.192 27.7821 19.576C28.2941 19.9493 29.0035 20.136 29.9101 20.136C30.7315 20.136 31.3555 19.9653 31.7821 19.624C32.2088 19.272 32.4221 18.808 32.4221 18.232C32.4221 17.8587 32.3208 17.5387 32.1181 17.272C31.9261 17.0053 31.6221 16.7547 31.2061 16.52C30.8008 16.2853 30.2248 16.0133 29.4781 15.704C28.6781 15.384 28.0541 15.1067 27.6061 14.872C27.1688 14.6267 26.8115 14.3173 26.5341 13.944C26.2675 13.56 26.1341 13.08 26.1341 12.504C26.1341 11.608 26.4435 10.9147 27.0621 10.424C27.6915 9.92267 28.5501 9.672 29.6381 9.672C30.8221 9.672 31.7555 9.94933 32.4381 10.504C33.1208 11.0587 33.4621 11.7947 33.4621 12.712V13.064C33.4621 13.1707 33.4088 13.224 33.3021 13.224H32.5021C32.3955 13.224 32.3421 13.1707 32.3421 13.064V12.776C32.3421 12.1573 32.0968 11.6507 31.6061 11.256C31.1261 10.8613 30.4541 10.664 29.5901 10.664C28.8328 10.664 28.2515 10.8187 27.8461 11.128C27.4408 11.4373 27.2381 11.8853 27.2381 12.472C27.2381 12.856 27.3341 13.176 27.5261 13.432C27.7288 13.6773 28.0115 13.896 28.3741 14.088C28.7475 14.2693 29.3181 14.5093 30.0861 14.808C30.8648 15.128 31.4888 15.4267 31.9581 15.704C32.4381 15.9813 32.8221 16.3227 33.1101 16.728C33.4088 17.1227 33.5581 17.608 33.5581 18.184C33.5581 19.08 33.2275 19.7947 32.5661 20.328C31.9048 20.8613 30.9875 21.128 29.8141 21.128ZM41.9899 14.92C42.1499 15.432 42.2299 16.1093 42.2299 16.952C42.2299 17.8053 42.1605 18.4667 42.0219 18.936C41.8299 19.6187 41.4779 20.1573 40.9659 20.552C40.4645 20.936 39.8299 21.128 39.0619 21.128C38.6459 21.128 38.2619 21.048 37.9099 20.888C37.5579 20.7173 37.2645 20.4773 37.0299 20.168C37.0085 20.1467 36.9872 20.1413 36.9659 20.152C36.9552 20.152 36.9499 20.1627 36.9499 20.184V23.944C36.9499 24.0507 36.8965 24.104 36.7899 24.104H35.9739C35.8672 24.104 35.8139 24.0507 35.8139 23.944V13.064C35.8139 12.9573 35.8672 12.904 35.9739 12.904H36.7899C36.8965 12.904 36.9499 12.9573 36.9499 13.064V13.736C36.9499 13.7573 36.9552 13.7733 36.9659 13.784C36.9872 13.784 37.0085 13.7733 37.0299 13.752C37.2645 13.4427 37.5525 13.2027 37.8939 13.032C38.2459 12.8613 38.6352 12.776 39.0619 12.776C39.8085 12.776 40.4325 12.968 40.9339 13.352C41.4459 13.736 41.7979 14.2587 41.9899 14.92ZM40.7259 18.968C40.8432 18.7333 40.9285 18.472 40.9819 18.184C41.0459 17.8853 41.0779 17.4747 41.0779 16.952C41.0779 16.4507 41.0565 16.0613 41.0139 15.784C40.9712 15.496 40.8965 15.24 40.7899 15.016C40.6619 14.632 40.4325 14.328 40.1019 14.104C39.7819 13.88 39.3979 13.768 38.9499 13.768C38.5232 13.768 38.1659 13.88 37.8779 14.104C37.5899 14.328 37.3765 14.6267 37.2379 15C37.1419 15.2133 37.0725 15.464 37.0299 15.752C36.9872 16.04 36.9659 16.44 36.9659 16.952C36.9659 17.464 36.9872 17.8693 37.0299 18.168C37.0725 18.456 37.1472 18.712 37.2539 18.936C37.3819 19.2987 37.5899 19.592 37.8779 19.816C38.1765 20.0293 38.5285 20.136 38.9339 20.136C39.3605 20.136 39.7285 20.0293 40.0379 19.816C40.3579 19.6027 40.5872 19.32 40.7259 18.968ZM50.6286 15.592C50.6713 15.8907 50.6926 16.264 50.6926 16.712V17.224C50.6926 17.3307 50.6393 17.384 50.5326 17.384H45.3646C45.322 17.384 45.3006 17.4053 45.3006 17.448C45.322 18.0347 45.354 18.4133 45.3966 18.584C45.514 19.064 45.7646 19.4427 46.1486 19.72C46.5326 19.9973 47.0233 20.136 47.6206 20.136C48.0686 20.136 48.4633 20.0347 48.8046 19.832C49.146 19.6293 49.4126 19.3413 49.6046 18.968C49.6686 18.872 49.7433 18.8507 49.8286 18.904L50.4526 19.272C50.538 19.3253 50.5593 19.4 50.5166 19.496C50.25 20.008 49.85 20.4133 49.3166 20.712C48.7833 21 48.17 21.144 47.4766 21.144C46.7193 21.1333 46.0846 20.952 45.5726 20.6C45.0606 20.248 44.6926 19.7573 44.4686 19.128C44.2766 18.616 44.1806 17.88 44.1806 16.92C44.1806 16.472 44.186 16.1093 44.1966 15.832C44.218 15.544 44.2606 15.288 44.3246 15.064C44.506 14.3707 44.8686 13.816 45.4126 13.4C45.9673 12.984 46.634 12.776 47.4126 12.776C48.3833 12.776 49.13 13.0213 49.6526 13.512C50.1753 14.0027 50.5006 14.696 50.6286 15.592ZM47.4126 13.768C46.89 13.768 46.4526 13.9067 46.1006 14.184C45.7593 14.4507 45.5353 14.8133 45.4286 15.272C45.3646 15.496 45.322 15.8587 45.3006 16.36C45.3006 16.4027 45.322 16.424 45.3646 16.424H49.5086C49.5513 16.424 49.5726 16.4027 49.5726 16.36C49.5513 15.88 49.5193 15.5387 49.4766 15.336C49.3593 14.856 49.1193 14.4773 48.7566 14.2C48.4046 13.912 47.9566 13.768 47.4126 13.768ZM56.0079 21.128C55.2399 21.128 54.5785 20.9307 54.0239 20.536C53.4799 20.1307 53.1065 19.5867 52.9039 18.904C52.7652 18.4347 52.6959 17.7733 52.6959 16.92C52.6959 16.152 52.7652 15.5013 52.9039 14.968C53.0959 14.3067 53.4692 13.7787 54.0239 13.384C54.5785 12.9787 55.2399 12.776 56.0079 12.776C56.7865 12.776 57.4585 12.9733 58.0239 13.368C58.5999 13.7627 58.9732 14.2533 59.1439 14.84C59.1972 15.032 59.2292 15.192 59.2399 15.32V15.352C59.2399 15.4267 59.1919 15.4747 59.0959 15.496L58.2959 15.608H58.2639C58.1892 15.608 58.1412 15.56 58.1199 15.464L58.0719 15.224C57.9759 14.8187 57.7412 14.4773 57.3679 14.2C56.9945 13.912 56.5412 13.768 56.0079 13.768C55.4745 13.768 55.0265 13.912 54.6639 14.2C54.3119 14.4773 54.0825 14.8507 53.9759 15.32C53.8799 15.7253 53.8319 16.264 53.8319 16.936C53.8319 17.64 53.8799 18.184 53.9759 18.568C54.0825 19.048 54.3119 19.432 54.6639 19.72C55.0265 19.9973 55.4745 20.136 56.0079 20.136C56.5305 20.136 56.9785 20.0027 57.3519 19.736C57.7359 19.4587 57.9759 19.1067 58.0719 18.68V18.616L58.0879 18.552C58.0985 18.4453 58.1625 18.4027 58.2799 18.424L59.0639 18.552C59.1705 18.5733 59.2185 18.632 59.2079 18.728L59.1439 19.048C58.9839 19.6667 58.6159 20.168 58.0399 20.552C57.4639 20.936 56.7865 21.128 56.0079 21.128ZM62.0324 11.432C61.7764 11.432 61.563 11.3467 61.3924 11.176C61.2217 11.0053 61.1364 10.792 61.1364 10.536C61.1364 10.2693 61.2217 10.056 61.3924 9.896C61.563 9.72533 61.7764 9.64 62.0324 9.64C62.2884 9.64 62.5017 9.72533 62.6724 9.896C62.843 10.056 62.9284 10.2693 62.9284 10.536C62.9284 10.792 62.843 11.0053 62.6724 11.176C62.5017 11.3467 62.2884 11.432 62.0324 11.432ZM61.5844 20.984C61.4777 20.984 61.4244 20.9307 61.4244 20.824V13.048C61.4244 12.9413 61.4777 12.888 61.5844 12.888H62.4004C62.507 12.888 62.5604 12.9413 62.5604 13.048V20.824C62.5604 20.9307 62.507 20.984 62.4004 20.984H61.5844ZM68.1425 12.776C69.1025 12.776 69.8438 13.0213 70.3665 13.512C70.8892 14.0027 71.1505 14.6533 71.1505 15.464V20.84C71.1505 20.9467 71.0972 21 70.9905 21H70.1745C70.0678 21 70.0145 20.9467 70.0145 20.84V20.184C70.0145 20.1627 70.0038 20.1467 69.9825 20.136C69.9718 20.1253 69.9558 20.1307 69.9345 20.152C69.6678 20.472 69.3212 20.7173 68.8945 20.888C68.4678 21.048 67.9932 21.128 67.4705 21.128C66.7132 21.128 66.0785 20.936 65.5665 20.552C65.0545 20.168 64.7985 19.5813 64.7985 18.792C64.7985 17.992 65.0865 17.3627 65.6625 16.904C66.2492 16.4347 67.0598 16.2 68.0945 16.2H69.9505C69.9932 16.2 70.0145 16.1787 70.0145 16.136V15.528C70.0145 14.984 69.8598 14.5573 69.5505 14.248C69.2518 13.928 68.7825 13.768 68.1425 13.768C67.6305 13.768 67.2145 13.8693 66.8945 14.072C66.5745 14.264 66.3772 14.536 66.3025 14.888C66.2705 14.9947 66.2065 15.0427 66.1105 15.032L65.2465 14.92C65.1292 14.8987 65.0812 14.856 65.1025 14.792C65.1878 14.1947 65.5078 13.7093 66.0625 13.336C66.6172 12.9627 67.3105 12.776 68.1425 12.776ZM67.6945 20.152C68.3238 20.152 68.8678 19.9973 69.3265 19.688C69.7852 19.368 70.0145 18.9413 70.0145 18.408V17.16C70.0145 17.1173 69.9932 17.096 69.9505 17.096H68.2705C67.5665 17.096 67.0012 17.24 66.5745 17.528C66.1478 17.816 65.9345 18.216 65.9345 18.728C65.9345 19.1973 66.0945 19.5547 66.4145 19.8C66.7452 20.0347 67.1718 20.152 67.6945 20.152ZM73.6744 21C73.5677 21 73.5144 20.9467 73.5144 20.84V9.96C73.5144 9.85333 73.5677 9.8 73.6744 9.8H74.4904C74.597 9.8 74.6504 9.85333 74.6504 9.96V20.84C74.6504 20.9467 74.597 21 74.4904 21H73.6744Z" fill="white"/>
</svg>
